<mxfile host="Electron" modified="2023-07-23T13:02:43.070Z" agent="Mozilla/5.0 (Windows NT 10.0; Win64; x64) AppleWebKit/537.36 (KHTML, like Gecko) draw.io/21.6.1 Chrome/112.0.5615.204 Electron/24.6.1 Safari/537.36" etag="37sD3SSRU4PcpMKWuRDo" version="21.6.1" type="device">
  <diagram id="jWAMvOakBas4Yc_O8tK2" name="object association map">
    <mxGraphModel dx="880" dy="524" grid="0" gridSize="10" guides="1" tooltips="1" connect="1" arrows="1" fold="1" page="1" pageScale="1" pageWidth="827" pageHeight="1169" math="0" shadow="0">
      <root>
        <mxCell id="0" />
        <mxCell id="1" parent="0" />
        <mxCell id="i_2lN-LVfjnNXAP57_Qb-129" value="" style="group;container=0;" parent="1" vertex="1" connectable="0">
          <mxGeometry x="139.8875" y="70" width="389.4583333333333" height="122.84482758620689" as="geometry" />
        </mxCell>
        <mxCell id="i_2lN-LVfjnNXAP57_Qb-188" value="" style="group;fontSize=15;" parent="1" vertex="1" connectable="0">
          <mxGeometry x="643.1875" y="145.07183908045977" width="104.85416666666669" height="109.19540229885057" as="geometry" />
        </mxCell>
        <mxCell id="i_2lN-LVfjnNXAP57_Qb-184" value="&lt;font style=&quot;font-size: 12px&quot;&gt;label&lt;/font&gt;" style="rounded=0;whiteSpace=wrap;html=1;labelBackgroundColor=none;fontSize=8;fillColor=#dae8fc;strokeColor=#6c8ebf;" parent="i_2lN-LVfjnNXAP57_Qb-188" vertex="1">
          <mxGeometry x="14.979166666666666" width="104.85416666666669" height="27.29885057471264" as="geometry" />
        </mxCell>
        <mxCell id="i_2lN-LVfjnNXAP57_Qb-185" value="&lt;font style=&quot;font-size: 12px&quot;&gt;annotation&lt;/font&gt;" style="rounded=0;whiteSpace=wrap;html=1;labelBackgroundColor=none;fontSize=8;fillColor=#d5e8d4;strokeColor=#82b366;" parent="i_2lN-LVfjnNXAP57_Qb-188" vertex="1">
          <mxGeometry x="14.979166666666666" y="40.94827586206896" width="104.85416666666669" height="27.29885057471264" as="geometry" />
        </mxCell>
        <mxCell id="i_2lN-LVfjnNXAP57_Qb-24" value="&lt;font style=&quot;font-size: 16px&quot;&gt;&lt;br&gt;ResourceBinding/&lt;br&gt;ClusterResourceBinding&lt;/font&gt;" style="rounded=0;whiteSpace=wrap;html=1;align=center;fillColor=#f5f5f5;strokeColor=#666666;fontColor=#333333;verticalAlign=middle;" parent="1" vertex="1">
          <mxGeometry x="59" y="452.183908045977" width="719" height="152.87356321839079" as="geometry" />
        </mxCell>
        <mxCell id="i_2lN-LVfjnNXAP57_Qb-75" value="&lt;font style=&quot;font-size: 16px&quot;&gt;Resource Template&lt;/font&gt;" style="rounded=0;whiteSpace=wrap;html=1;fontFamily=Helvetica;fontSize=8;align=center;labelBackgroundColor=none;fillColor=#f5f5f5;strokeColor=#666666;fontColor=#333333;" parent="1" vertex="1">
          <mxGeometry x="59" y="240.617816091954" width="719" height="95.54597701149424" as="geometry" />
        </mxCell>
        <mxCell id="i_2lN-LVfjnNXAP57_Qb-19" value="&lt;font style=&quot;font-size: 16px&quot;&gt;CusterPropagationPolicy&lt;/font&gt;" style="rounded=0;whiteSpace=wrap;html=1;fillColor=#f5f5f5;strokeColor=#666666;fontColor=#333333;" parent="1" vertex="1">
          <mxGeometry x="88.95833333333333" y="378.47701149425285" width="209.70833333333337" height="27.29885057471264" as="geometry" />
        </mxCell>
        <UserObject label="&lt;div style=&quot;font-size: 12px&quot;&gt;&lt;font style=&quot;font-size: 12px&quot;&gt;label:&lt;/font&gt;&lt;/div&gt;&lt;font style=&quot;font-size: 12px&quot;&gt;propagationpolicy.karmada.io/namespace&lt;br&gt;propagationpolicy.karmada.io/name&lt;/font&gt;" link="propagationpolicy.karmada.io/namespacepropagationpolicy.karmada.io/name" id="i_2lN-LVfjnNXAP57_Qb-33">
          <mxCell style="shape=note;html=1;backgroundOutline=1;darkOpacity=0.05;rounded=0;fontSize=8;align=left;size=15;whiteSpace=wrap;fillColor=#dae8fc;strokeColor=#6c8ebf;" parent="1" vertex="1">
            <mxGeometry x="523.3541666666667" y="261.0919540229885" width="239.66666666666666" height="54.59770114942528" as="geometry" />
          </mxCell>
        </UserObject>
        <UserObject label="&lt;div style=&quot;font-size: 12px&quot;&gt;&lt;font style=&quot;font-size: 12px&quot;&gt;label:&lt;/font&gt;&lt;/div&gt;&lt;div style=&quot;font-size: 12px&quot;&gt;&lt;font style=&quot;font-size: 12px&quot;&gt;clusterpropagationpolicy.karmada.io/name&lt;/font&gt;&lt;br&gt;&lt;/div&gt;" link="propagationpolicy.karmada.io/namespacepropagationpolicy.karmada.io/name" id="i_2lN-LVfjnNXAP57_Qb-38">
          <mxCell style="shape=note;html=1;backgroundOutline=1;darkOpacity=0.05;rounded=0;fontSize=8;align=left;size=15;whiteSpace=wrap;fillColor=#dae8fc;strokeColor=#6c8ebf;" parent="1" vertex="1">
            <mxGeometry x="73.97916666666667" y="261.0919540229885" width="239.66666666666666" height="54.59770114942528" as="geometry" />
          </mxCell>
        </UserObject>
        <mxCell id="i_2lN-LVfjnNXAP57_Qb-48" value="&lt;font style=&quot;font-size: 16px&quot;&gt;PropagationPolicy&lt;/font&gt;" style="rounded=0;whiteSpace=wrap;html=1;fillColor=#f5f5f5;strokeColor=#666666;fontColor=#333333;" parent="1" vertex="1">
          <mxGeometry x="553.3125" y="378.47701149425285" width="179.75" height="27.29885057471264" as="geometry" />
        </mxCell>
        <UserObject label="&lt;div style=&quot;font-size: 12px;&quot;&gt;&lt;span style=&quot;font-size: 12px;&quot;&gt;label:&lt;/span&gt;&lt;/div&gt;&lt;div style=&quot;font-size: 12px;&quot;&gt;clusterpropagationpolicy.karmada.io/name&lt;br style=&quot;font-size: 12px;&quot;&gt;&lt;/div&gt;" link="propagationpolicy.karmada.io/namespacepropagationpolicy.karmada.io/name" id="i_2lN-LVfjnNXAP57_Qb-66">
          <mxCell style="shape=note;html=1;backgroundOutline=1;darkOpacity=0.05;rounded=0;fontSize=12;align=left;size=15;whiteSpace=wrap;fillColor=#dae8fc;strokeColor=#6c8ebf;" parent="1" vertex="1">
            <mxGeometry x="73.97916666666667" y="472.65804597701145" width="239.66666666666666" height="54.59770114942528" as="geometry" />
          </mxCell>
        </UserObject>
        <UserObject label="&lt;div style=&quot;font-size: 12px;&quot;&gt;&lt;span style=&quot;font-size: 12px;&quot;&gt;label:&lt;/span&gt;&lt;/div&gt;propagationpolicy.karmada.io/namespace&lt;br style=&quot;font-size: 12px;&quot;&gt;propagationpolicy.karmada.io/name" link="propagationpolicy.karmada.io/namespacepropagationpolicy.karmada.io/name" id="i_2lN-LVfjnNXAP57_Qb-67">
          <mxCell style="shape=note;html=1;backgroundOutline=1;darkOpacity=0.05;rounded=0;fontSize=12;align=left;size=13;whiteSpace=wrap;fillColor=#dae8fc;strokeColor=#6c8ebf;" parent="1" vertex="1">
            <mxGeometry x="523.3541666666667" y="490.40229885057465" width="239.66666666666666" height="54.59770114942528" as="geometry" />
          </mxCell>
        </UserObject>
        <UserObject label="&lt;div style=&quot;font-size: 12px;&quot;&gt;annotation:&lt;/div&gt;&lt;div style=&quot;font-size: 12px;&quot;&gt;policy.karmada.io/applied-placement&lt;br style=&quot;font-size: 12px;&quot;&gt;&lt;/div&gt;" link="propagationpolicy.karmada.io/namespacepropagationpolicy.karmada.io/name" id="i_2lN-LVfjnNXAP57_Qb-76">
          <mxCell style="shape=note;html=1;backgroundOutline=1;darkOpacity=0.05;rounded=0;fontSize=12;align=left;size=15;whiteSpace=wrap;fillColor=#d5e8d4;strokeColor=#82b366;" parent="1" vertex="1">
            <mxGeometry x="88.95833333333333" y="545" width="209.70833333333337" height="45.04310344827586" as="geometry" />
          </mxCell>
        </UserObject>
        <mxCell id="i_2lN-LVfjnNXAP57_Qb-78" value="&lt;font style=&quot;font-size: 16px&quot;&gt;Work&lt;/font&gt;" style="rounded=0;whiteSpace=wrap;html=1;align=center;labelPosition=center;verticalLabelPosition=middle;verticalAlign=middle;fillColor=#f5f5f5;strokeColor=#666666;fontColor=#333333;" parent="1" vertex="1">
          <mxGeometry x="60" y="677" width="719" height="291.7" as="geometry" />
        </mxCell>
        <UserObject label="&lt;div style=&quot;font-size: 12px;&quot;&gt;&lt;span style=&quot;font-size: 12px;&quot;&gt;annotation:&lt;/span&gt;&lt;/div&gt;&lt;div style=&quot;&quot;&gt;clusterresourcebinding.karmada.io/name&lt;br style=&quot;font-size: 12px;&quot;&gt;&lt;/div&gt;" link="clusterresourcebinding.karmada.io/name" id="i_2lN-LVfjnNXAP57_Qb-83">
          <mxCell style="shape=note;html=1;backgroundOutline=1;darkOpacity=0.05;rounded=0;fontSize=12;align=left;size=15;whiteSpace=wrap;fillColor=#d5e8d4;strokeColor=#82b366;" parent="1" vertex="1">
            <mxGeometry x="88.95916666666668" y="686.9540229885057" width="239.66666666666666" height="54.59770114942528" as="geometry" />
          </mxCell>
        </UserObject>
        <UserObject label="&lt;div style=&quot;font-size: 12px;&quot;&gt;&lt;span style=&quot;font-size: 12px;&quot;&gt;annotation:&lt;/span&gt;&lt;/div&gt;&lt;div style=&quot;font-size: 12px;&quot;&gt;&lt;div style=&quot;font-size: 12px;&quot;&gt;resourcebinding.karmada.io/namespace&lt;/div&gt;&lt;div style=&quot;font-size: 12px;&quot;&gt;resourcebinding.karmada.io/name&lt;/div&gt;&lt;/div&gt;" link="resourcebinding.karmada.io/namespace resourcebinding.karmada.io/name" id="i_2lN-LVfjnNXAP57_Qb-84">
          <mxCell style="shape=note;html=1;backgroundOutline=1;darkOpacity=0.05;rounded=0;fontSize=12;align=left;size=15;whiteSpace=wrap;fillColor=#d5e8d4;strokeColor=#82b366;" parent="1" vertex="1">
            <mxGeometry x="527.0941666666668" y="689.0040229885057" width="239.66666666666666" height="54.59770114942528" as="geometry" />
          </mxCell>
        </UserObject>
        <mxCell id="i_2lN-LVfjnNXAP57_Qb-92" value="" style="endArrow=classic;html=1;fontFamily=Helvetica;fontSize=8;exitX=0.5;exitY=0;exitDx=0;exitDy=0;entryX=0.5;entryY=1;entryDx=0;entryDy=0;entryPerimeter=0;" parent="1" source="i_2lN-LVfjnNXAP57_Qb-19" target="i_2lN-LVfjnNXAP57_Qb-38" edge="1">
          <mxGeometry x="59" y="240.617816091954" as="geometry">
            <mxPoint x="163.85416666666669" y="528.6206896551723" as="sourcePoint" />
            <mxPoint x="313.64583333333337" y="528.6206896551723" as="targetPoint" />
          </mxGeometry>
        </mxCell>
        <mxCell id="i_2lN-LVfjnNXAP57_Qb-95" value="" style="endArrow=classic;html=1;fontFamily=Helvetica;fontSize=8;exitX=0.5;exitY=1;exitDx=0;exitDy=0;entryX=0.5;entryY=0;entryDx=0;entryDy=0;entryPerimeter=0;" parent="1" source="i_2lN-LVfjnNXAP57_Qb-19" target="i_2lN-LVfjnNXAP57_Qb-66" edge="1">
          <mxGeometry x="59" y="240.617816091954" as="geometry">
            <mxPoint x="163.85416666666669" y="528.6206896551723" as="sourcePoint" />
            <mxPoint x="313.64583333333337" y="528.6206896551723" as="targetPoint" />
          </mxGeometry>
        </mxCell>
        <mxCell id="i_2lN-LVfjnNXAP57_Qb-99" value="" style="endArrow=classic;html=1;fontFamily=Helvetica;fontSize=8;exitX=0.5;exitY=1;exitDx=0;exitDy=0;" parent="1" source="i_2lN-LVfjnNXAP57_Qb-48" target="i_2lN-LVfjnNXAP57_Qb-67" edge="1">
          <mxGeometry x="59" y="240.617816091954" as="geometry">
            <mxPoint x="163.85416666666669" y="528.6206896551723" as="sourcePoint" />
            <mxPoint x="313.64583333333337" y="528.6206896551723" as="targetPoint" />
          </mxGeometry>
        </mxCell>
        <mxCell id="i_2lN-LVfjnNXAP57_Qb-101" value="" style="endArrow=classic;html=1;fontFamily=Helvetica;fontSize=8;exitX=0.5;exitY=0;exitDx=0;exitDy=0;" parent="1" source="i_2lN-LVfjnNXAP57_Qb-48" target="i_2lN-LVfjnNXAP57_Qb-33" edge="1">
          <mxGeometry x="59" y="240.617816091954" as="geometry">
            <mxPoint x="163.85416666666669" y="528.6206896551723" as="sourcePoint" />
            <mxPoint x="313.64583333333337" y="528.6206896551723" as="targetPoint" />
          </mxGeometry>
        </mxCell>
        <mxCell id="i_2lN-LVfjnNXAP57_Qb-108" value="" style="endArrow=classic;html=1;fontFamily=Helvetica;fontSize=8;exitX=0.25;exitY=1;exitDx=0;exitDy=0;entryX=0.5;entryY=0;entryDx=0;entryDy=0;entryPerimeter=0;" parent="1" source="i_2lN-LVfjnNXAP57_Qb-24" target="i_2lN-LVfjnNXAP57_Qb-83" edge="1">
          <mxGeometry x="59" y="240.617816091954" as="geometry">
            <mxPoint x="163.85416666666669" y="523.1609195402299" as="sourcePoint" />
            <mxPoint x="313.64583333333337" y="523.1609195402299" as="targetPoint" />
          </mxGeometry>
        </mxCell>
        <mxCell id="i_2lN-LVfjnNXAP57_Qb-110" value="ClusterResourceBinding" style="edgeLabel;html=1;align=center;verticalAlign=middle;resizable=0;points=[];fontSize=12;fontFamily=Helvetica;" parent="i_2lN-LVfjnNXAP57_Qb-108" vertex="1" connectable="0">
          <mxGeometry x="-0.3445" relative="1" as="geometry">
            <mxPoint as="offset" />
          </mxGeometry>
        </mxCell>
        <mxCell id="i_2lN-LVfjnNXAP57_Qb-111" value="" style="endArrow=classic;html=1;fontFamily=Helvetica;fontSize=8;exitX=0.75;exitY=1;exitDx=0;exitDy=0;entryX=0.5;entryY=0;entryDx=0;entryDy=0;entryPerimeter=0;" parent="1" source="i_2lN-LVfjnNXAP57_Qb-24" target="i_2lN-LVfjnNXAP57_Qb-84" edge="1">
          <mxGeometry x="59" y="240.617816091954" as="geometry">
            <mxPoint x="163.85416666666669" y="523.1609195402299" as="sourcePoint" />
            <mxPoint x="313.64583333333337" y="523.1609195402299" as="targetPoint" />
          </mxGeometry>
        </mxCell>
        <mxCell id="i_2lN-LVfjnNXAP57_Qb-113" value="&lt;font style=&quot;font-size: 12px&quot;&gt;ResourceBinding&lt;/font&gt;" style="edgeLabel;html=1;align=center;verticalAlign=middle;resizable=0;points=[];fontSize=8;fontFamily=Helvetica;" parent="i_2lN-LVfjnNXAP57_Qb-111" vertex="1" connectable="0">
          <mxGeometry x="-0.4061" relative="1" as="geometry">
            <mxPoint as="offset" />
          </mxGeometry>
        </mxCell>
        <UserObject label="&lt;div style=&quot;font-size: 12px;&quot;&gt;&lt;span style=&quot;font-size: 12px;&quot;&gt;label:&lt;/span&gt;&lt;/div&gt;&lt;div style=&quot;font-size: 12px;&quot;&gt;propagation.karmada.io/instruction&lt;br style=&quot;font-size: 12px;&quot;&gt;&lt;/div&gt;" link="clusterresourcebinding.karmada.io/name" id="i_2lN-LVfjnNXAP57_Qb-114">
          <mxCell style="shape=note;html=1;backgroundOutline=1;darkOpacity=0.05;rounded=0;fontSize=12;align=left;size=15;whiteSpace=wrap;fillColor=#dae8fc;strokeColor=#6c8ebf;" parent="1" vertex="1">
            <mxGeometry x="88.89791666666666" y="755.2011494252872" width="194.72916666666666" height="40.94827586206896" as="geometry" />
          </mxCell>
        </UserObject>
        <UserObject label="&lt;div style=&quot;font-size: 12px;&quot;&gt;&lt;span style=&quot;font-size: 12px;&quot;&gt;label:&lt;/span&gt;&lt;/div&gt;&lt;div style=&quot;font-size: 12px;&quot;&gt;&lt;div style=&quot;font-size: 12px;&quot;&gt;endpointslice.karmada.io/namespace&lt;/div&gt;&lt;div style=&quot;font-size: 12px;&quot;&gt;endpointslice.karmada.io/name&lt;/div&gt;&lt;/div&gt;" link="clusterresourcebinding.karmada.io/name" id="i_2lN-LVfjnNXAP57_Qb-116">
          <mxCell style="shape=note;html=1;backgroundOutline=1;darkOpacity=0.05;rounded=0;fontSize=12;align=left;size=15;whiteSpace=wrap;fillColor=#dae8fc;strokeColor=#6c8ebf;" parent="1" vertex="1">
            <mxGeometry x="88.89354166666668" y="812.5286206896552" width="217.19791666666666" height="54.59770114942528" as="geometry" />
          </mxCell>
        </UserObject>
        <UserObject label="&lt;div style=&quot;font-size: 12px;&quot;&gt;annotation:&lt;/div&gt;&lt;div style=&quot;font-size: 12px;&quot;&gt;policy.karmada.io/applied-cluster-overrides&lt;br style=&quot;font-size: 12px;&quot;&gt;&lt;/div&gt;" link="clusterresourcebinding.karmada.io/name" id="i_2lN-LVfjnNXAP57_Qb-118">
          <mxCell style="shape=note;html=1;backgroundOutline=1;darkOpacity=0.05;rounded=0;fontSize=12;align=left;size=15;whiteSpace=wrap;fillColor=#d5e8d4;strokeColor=#82b366;" parent="1" vertex="1">
            <mxGeometry x="527.1041666666667" y="815.2585057471264" width="239.66666666666666" height="49.137931034482754" as="geometry" />
          </mxCell>
        </UserObject>
        <UserObject label="&lt;div style=&quot;font-size: 12px;&quot;&gt;annotation:&lt;/div&gt;&lt;div style=&quot;font-size: 12px;&quot;&gt;policy.karmada.io/applied-overrides&lt;br style=&quot;font-size: 12px;&quot;&gt;&lt;/div&gt;" link="clusterresourcebinding.karmada.io/name" id="i_2lN-LVfjnNXAP57_Qb-120">
          <mxCell style="shape=note;html=1;backgroundOutline=1;darkOpacity=0.05;rounded=0;fontSize=12;align=left;size=15;whiteSpace=wrap;fillColor=#d5e8d4;strokeColor=#82b366;" parent="1" vertex="1">
            <mxGeometry x="527.1020833333332" y="755.2011494252872" width="194.72916666666666" height="49.137931034482754" as="geometry" />
          </mxCell>
        </UserObject>
        <mxCell id="i_2lN-LVfjnNXAP57_Qb-122" value="&lt;font style=&quot;font-size: 18px;&quot;&gt;&amp;nbsp; Workload&lt;/font&gt;" style="rounded=0;whiteSpace=wrap;html=1;align=center;labelPosition=center;verticalLabelPosition=middle;verticalAlign=middle;fillColor=#f5f5f5;strokeColor=#666666;fontColor=#333333;" parent="1" vertex="1">
          <mxGeometry x="49.01" y="1046" width="720" height="313" as="geometry" />
        </mxCell>
        <UserObject label="&lt;div style=&quot;font-size: 12px;&quot;&gt;&lt;span style=&quot;font-size: 12px;&quot;&gt;label:&lt;/span&gt;&lt;/div&gt;&lt;div style=&quot;font-size: 12px;&quot;&gt;&lt;div style=&quot;font-size: 12px;&quot;&gt;work.karmada.io/namespace&lt;/div&gt;&lt;div style=&quot;font-size: 12px;&quot;&gt;work.karmada.io/name&lt;/div&gt;&lt;/div&gt;" link="clusterresourcebinding.karmada.io/name" id="i_2lN-LVfjnNXAP57_Qb-123">
          <mxCell style="shape=note;html=1;backgroundOutline=1;darkOpacity=0.05;rounded=0;fontSize=12;align=left;size=15;whiteSpace=wrap;fillColor=#dae8fc;strokeColor=#6c8ebf;" parent="1" vertex="1">
            <mxGeometry x="328.6210416666666" y="1284.0028735632184" width="217.19791666666666" height="54.59770114942528" as="geometry" />
          </mxCell>
        </UserObject>
        <mxCell id="i_2lN-LVfjnNXAP57_Qb-131" value="" style="edgeStyle=none;rounded=0;orthogonalLoop=1;jettySize=auto;html=1;fontFamily=Helvetica;fontSize=8;entryX=0.5;entryY=0;entryDx=0;entryDy=0;entryPerimeter=0;exitX=0.25;exitY=1;exitDx=0;exitDy=0;" parent="1" source="i_2lN-LVfjnNXAP57_Qb-78" target="6wsIMndRg4jXzGgh_H3--5" edge="1">
          <mxGeometry x="59" y="240.617816091954" as="geometry">
            <mxPoint x="204" y="970" as="sourcePoint" />
          </mxGeometry>
        </mxCell>
        <mxCell id="i_2lN-LVfjnNXAP57_Qb-124" value="" style="endArrow=classic;html=1;fontFamily=Helvetica;fontSize=8;entryX=0;entryY=0;entryDx=89.86458333333333;entryDy=0;entryPerimeter=0;exitX=0.75;exitY=1;exitDx=0;exitDy=0;" parent="1" source="i_2lN-LVfjnNXAP57_Qb-78" target="6wsIMndRg4jXzGgh_H3--4" edge="1">
          <mxGeometry x="59" y="240.617816091954" as="geometry">
            <mxPoint x="618" y="967" as="sourcePoint" />
            <mxPoint x="208.79166666666666" y="486.30747126436785" as="targetPoint" />
          </mxGeometry>
        </mxCell>
        <mxCell id="i_2lN-LVfjnNXAP57_Qb-136" value="&lt;font style=&quot;font-size: 12px&quot;&gt;name&lt;/font&gt;" style="text;html=1;strokeColor=none;fillColor=none;align=center;verticalAlign=middle;whiteSpace=wrap;rounded=0;labelBackgroundColor=none;fontSize=8;" parent="1" vertex="1">
          <mxGeometry x="145.87916666666666" y="340.2586206896552" width="59.916666666666664" height="27.29885057471264" as="geometry" />
        </mxCell>
        <mxCell id="i_2lN-LVfjnNXAP57_Qb-176" value="&lt;font style=&quot;font-size: 12px&quot;&gt;name&lt;/font&gt;" style="text;html=1;strokeColor=none;fillColor=none;align=center;verticalAlign=middle;whiteSpace=wrap;rounded=0;labelBackgroundColor=none;fontSize=8;" parent="1" vertex="1">
          <mxGeometry x="145.87916666666666" y="415.3304597701149" width="59.916666666666664" height="27.29885057471264" as="geometry" />
        </mxCell>
        <mxCell id="i_2lN-LVfjnNXAP57_Qb-177" value="&lt;font style=&quot;font-size: 12px&quot;&gt;namespace&lt;br&gt;name&lt;/font&gt;" style="text;html=1;strokeColor=none;fillColor=none;align=center;verticalAlign=middle;whiteSpace=wrap;rounded=0;labelBackgroundColor=none;fontSize=8;" parent="1" vertex="1">
          <mxGeometry x="646.1833333333334" y="340.2586206896552" width="59.916666666666664" height="27.29885057471264" as="geometry" />
        </mxCell>
        <mxCell id="i_2lN-LVfjnNXAP57_Qb-179" value="&lt;font style=&quot;font-size: 12px&quot;&gt;namespace&lt;br&gt;name&lt;/font&gt;" style="text;html=1;strokeColor=none;fillColor=none;align=center;verticalAlign=middle;whiteSpace=wrap;rounded=0;labelBackgroundColor=none;fontSize=8;" parent="1" vertex="1">
          <mxGeometry x="646.1833333333334" y="415.3304597701149" width="59.916666666666664" height="27.29885057471264" as="geometry" />
        </mxCell>
        <mxCell id="i_2lN-LVfjnNXAP57_Qb-180" value="namespace&lt;br style=&quot;font-size: 12px;&quot;&gt;name" style="text;html=1;strokeColor=none;fillColor=none;align=center;verticalAlign=middle;whiteSpace=wrap;rounded=0;labelBackgroundColor=none;fontSize=12;" parent="1" vertex="1">
          <mxGeometry x="628.2083333333335" y="639.1810344827586" width="59.916666666666664" height="27.29885057471264" as="geometry" />
        </mxCell>
        <mxCell id="i_2lN-LVfjnNXAP57_Qb-181" value="namespace&lt;br style=&quot;font-size: 12px;&quot;&gt;name" style="text;html=1;strokeColor=none;fillColor=none;align=center;verticalAlign=middle;whiteSpace=wrap;rounded=0;labelBackgroundColor=none;fontSize=12;" parent="1" vertex="1">
          <mxGeometry x="639.00375" y="1003.9951724137932" width="59.916666666666664" height="27.29885057471264" as="geometry" />
        </mxCell>
        <mxCell id="i_2lN-LVfjnNXAP57_Qb-182" value="name" style="text;html=1;strokeColor=none;fillColor=none;align=center;verticalAlign=middle;whiteSpace=wrap;rounded=0;labelBackgroundColor=none;fontSize=12;" parent="1" vertex="1">
          <mxGeometry x="163.85416666666669" y="639.1810344827586" width="59.916666666666664" height="27.29885057471264" as="geometry" />
        </mxCell>
        <UserObject label="&lt;div style=&quot;font-size: 12px;&quot;&gt;&lt;span style=&quot;font-size: 12px;&quot;&gt;label:&lt;/span&gt;&lt;/div&gt;&lt;div style=&quot;&quot;&gt;resourcebinding.karmada.io/key&lt;br style=&quot;font-size: 12px;&quot;&gt;&lt;/div&gt;" link="clusterresourcebinding.karmada.io/name" id="6wsIMndRg4jXzGgh_H3--1">
          <mxCell style="shape=note;html=1;backgroundOutline=1;darkOpacity=0.05;rounded=0;fontSize=12;align=left;size=15;whiteSpace=wrap;fillColor=#dae8fc;strokeColor=#6c8ebf;" vertex="1" parent="1">
            <mxGeometry x="529.3479166666667" y="892.0011494252872" width="194.72916666666666" height="40.94827586206896" as="geometry" />
          </mxCell>
        </UserObject>
        <UserObject label="&lt;div style=&quot;font-size: 12px;&quot;&gt;&lt;span style=&quot;font-size: 12px;&quot;&gt;label:&lt;/span&gt;&lt;/div&gt;&lt;div style=&quot;font-size: 12px;&quot;&gt;&lt;div&gt;clusterresourcebinding.karmada.io/key&lt;/div&gt;&lt;div&gt;&lt;br&gt;&lt;/div&gt;&lt;/div&gt;" link="clusterresourcebinding.karmada.io/name" id="6wsIMndRg4jXzGgh_H3--2">
          <mxCell style="shape=note;html=1;backgroundOutline=1;darkOpacity=0.05;rounded=0;fontSize=12;align=left;size=15;whiteSpace=wrap;fillColor=#dae8fc;strokeColor=#6c8ebf;" vertex="1" parent="1">
            <mxGeometry x="88.9" y="892" width="221" height="40.95" as="geometry" />
          </mxCell>
        </UserObject>
        <UserObject label="&lt;div style=&quot;font-size: 12px;&quot;&gt;&lt;span style=&quot;font-size: 12px;&quot;&gt;label:&lt;/span&gt;&lt;/div&gt;&lt;div style=&quot;font-size: 12px;&quot;&gt;&lt;div style=&quot;font-size: 12px;&quot;&gt;karmada.io/managed&lt;/div&gt;&lt;div style=&quot;font-size: 12px;&quot;&gt;&lt;br&gt;&lt;/div&gt;&lt;/div&gt;" link="clusterresourcebinding.karmada.io/name" id="6wsIMndRg4jXzGgh_H3--3">
          <mxCell style="shape=note;html=1;backgroundOutline=1;darkOpacity=0.05;rounded=0;fontSize=12;align=left;size=15;whiteSpace=wrap;fillColor=#dae8fc;strokeColor=#6c8ebf;" vertex="1" parent="1">
            <mxGeometry x="364" y="1229" width="137.85" height="41" as="geometry" />
          </mxCell>
        </UserObject>
        <UserObject label="&lt;div style=&quot;font-size: 12px;&quot;&gt;&lt;span style=&quot;font-size: 12px;&quot;&gt;label:&lt;/span&gt;&lt;/div&gt;&lt;div style=&quot;&quot;&gt;resourcebinding.karmada.io/key&lt;br style=&quot;font-size: 12px;&quot;&gt;&lt;/div&gt;" link="clusterresourcebinding.karmada.io/name" id="6wsIMndRg4jXzGgh_H3--4">
          <mxCell style="shape=note;html=1;backgroundOutline=1;darkOpacity=0.05;rounded=0;fontSize=12;align=left;size=15;whiteSpace=wrap;fillColor=#dae8fc;strokeColor=#6c8ebf;" vertex="1" parent="1">
            <mxGeometry x="568.2879166666667" y="1073.0011494252872" width="194.72916666666666" height="40.94827586206896" as="geometry" />
          </mxCell>
        </UserObject>
        <UserObject label="&lt;div style=&quot;font-size: 12px;&quot;&gt;&lt;span style=&quot;font-size: 12px;&quot;&gt;label:&lt;/span&gt;&lt;/div&gt;&lt;div style=&quot;font-size: 12px;&quot;&gt;&lt;div&gt;clusterresourcebinding.karmada.io/key&lt;/div&gt;&lt;div&gt;&lt;br&gt;&lt;/div&gt;&lt;/div&gt;" link="clusterresourcebinding.karmada.io/name" id="6wsIMndRg4jXzGgh_H3--5">
          <mxCell style="shape=note;html=1;backgroundOutline=1;darkOpacity=0.05;rounded=0;fontSize=12;align=left;size=15;whiteSpace=wrap;fillColor=#dae8fc;strokeColor=#6c8ebf;" vertex="1" parent="1">
            <mxGeometry x="98.28999999999999" y="1081.95" width="221" height="41" as="geometry" />
          </mxCell>
        </UserObject>
        <UserObject label="&lt;div style=&quot;font-size: 12px;&quot;&gt;&lt;span style=&quot;font-size: 12px;&quot;&gt;annotation:&lt;/span&gt;&lt;/div&gt;&lt;div style=&quot;font-size: 12px;&quot;&gt;&lt;div style=&quot;font-size: 12px;&quot;&gt;resourcebinding.karmada.io/namespace&lt;/div&gt;&lt;div style=&quot;font-size: 12px;&quot;&gt;resourcebinding.karmada.io/name&lt;/div&gt;&lt;/div&gt;" link="resourcebinding.karmada.io/namespace resourcebinding.karmada.io/name" id="6wsIMndRg4jXzGgh_H3--10">
          <mxCell style="shape=note;html=1;backgroundOutline=1;darkOpacity=0.05;rounded=0;fontSize=12;align=left;size=15;whiteSpace=wrap;fillColor=#d5e8d4;strokeColor=#82b366;" vertex="1" parent="1">
            <mxGeometry x="529.3441666666666" y="1138.0040229885058" width="239.66666666666666" height="54.59770114942528" as="geometry" />
          </mxCell>
        </UserObject>
        <UserObject label="&lt;div style=&quot;font-size: 12px;&quot;&gt;&lt;span style=&quot;font-size: 12px;&quot;&gt;annotation:&lt;/span&gt;&lt;/div&gt;&lt;div style=&quot;&quot;&gt;clusterresourcebinding.karmada.io/name&lt;br style=&quot;font-size: 12px;&quot;&gt;&lt;/div&gt;" link="clusterresourcebinding.karmada.io/name" id="6wsIMndRg4jXzGgh_H3--11">
          <mxCell style="shape=note;html=1;backgroundOutline=1;darkOpacity=0.05;rounded=0;fontSize=12;align=left;size=15;whiteSpace=wrap;fillColor=#d5e8d4;strokeColor=#82b366;" vertex="1" parent="1">
            <mxGeometry x="94.45916666666669" y="1138.0040229885058" width="239.66666666666666" height="54.59770114942528" as="geometry" />
          </mxCell>
        </UserObject>
        <mxCell id="6wsIMndRg4jXzGgh_H3--14" value="name" style="text;html=1;strokeColor=none;fillColor=none;align=center;verticalAlign=middle;whiteSpace=wrap;rounded=0;labelBackgroundColor=none;fontSize=12;" vertex="1" parent="1">
          <mxGeometry x="223.77374999999995" y="998.9951724137932" width="59.916666666666664" height="27.29885057471264" as="geometry" />
        </mxCell>
      </root>
    </mxGraphModel>
  </diagram>
</mxfile>
